PathFileType	4	(X/Y/Z)	c:/Users/goper/Files/vsCode/490R/osim_files/A06/A06_Fast_06.trc
DataRate	CameraRate	NumFrames	NumMarkers	Units                	OrigDataRate	OrigDataStartFrame	OrigNumFrames
120.00	120.00	11	36	mm	120.0	271	1081
                Frame#	Time	LPSIS			LASIS			LTH1			LTH2			LTH3			LTH4			LLFE			LMFE			LSH1			LSH2			LSH3			LSH4			LLMAL			LMMAL			LCAL			LMTP5			LTOE			LMTP1			RPSIS			RASIS			RTH1			RTH2			RTH3			RTH4			RLFE			RMFE			RSH1			RSH2			RSH3			RSH4			RLMAL			RMMAL			RCAL			RMTP1			RTOE			RMTP5		
		X1	Y1	Z1	X2	Y2	Z2	X3	Y3	Z3	X4	Y4	Z4	X5	Y5	Z5	X6	Y6	Z6	X7	Y7	Z7	X8	Y8	Z8	X9	Y9	Z9	X10	Y10	Z10	X11	Y11	Z11	X12	Y12	Z12	X13	Y13	Z13	X14	Y14	Z14	X15	Y15	Z15	X16	Y16	Z16	X17	Y17	Z17	X18	Y18	Z18	X19	Y19	Z19	X20	Y20	Z20	X21	Y21	Z21	X22	Y22	Z22	X23	Y23	Z23	X24	Y24	Z24	X25	Y25	Z25	X26	Y26	Z26	X27	Y27	Z27	X28	Y28	Z28	X29	Y29	Z29	X30	Y30	Z30	X31	Y31	Z31	X32	Y32	Z32	X33	Y33	Z33	X34	Y34	Z34	X35	Y35	Z35	X36	Y36	Z36

271	2.25000	1019.81012	1000.28461	295.19223	834.66687	946.81805	375.19748	847.02631	578.94751	402.04321	830.58289	539.97589	397.05722	784.25024	594.19403	394.23438	779.60443	551.57776	391.99771	796.75934	473.54697	384.62717	793.13330	471.89542	271.53540	895.90723	436.60669	396.18140	923.21985	399.17871	400.52701	850.25916	394.52325	386.27695	880.61108	365.04303	388.87079	1101.55249	222.45711	354.89151	1079.72559	215.11194	272.14188	1152.80505	262.77539	300.86893	1064.68823	102.38128	374.06537	1019.98657	85.80576	322.14380	1041.61572	99.25897	281.02231	1010.66870	1013.40649	164.92407	834.49347	970.83533	116.99390	954.07373	593.39282	81.60656	947.02832	550.85156	82.49711	0.00000	0.00000	0.00000	892.90173	550.95752	87.82688	921.18292	438.27005	109.81068	918.63403	439.81064	200.10657	876.34692	278.70801	139.12352	883.62885	230.35966	135.78999	938.93127	282.02972	127.17438	937.44843	234.21469	129.64294	933.41138	102.57701	124.16040	919.51416	107.74487	207.24467	989.00073	84.56161	173.26761	787.23883	58.44847	200.47874	771.93402	69.64991	160.16756	799.97180	53.62099	112.96104
272	2.25833	1008.95563	1001.37958	294.63348	824.93317	948.33704	375.81354	830.05743	582.43085	403.12701	812.50000	543.89240	398.32285	767.53064	599.22925	396.32864	762.23022	556.94031	393.65823	776.78296	478.33777	385.91611	771.91510	476.71704	273.06897	874.95654	438.48825	396.74149	900.67657	399.90533	400.88882	827.57452	398.16034	387.67093	856.83264	367.86050	390.62051	1071.31592	215.57033	354.83304	1048.27551	208.83804	271.90805	1124.43347	252.38441	299.70883	1028.48987	98.67281	375.69403	979.20825	85.87489	324.03674	1003.94873	95.61131	282.74692	999.55341	1014.51361	164.31419	822.73059	971.53058	117.19590	946.83997	594.48285	81.87411	940.40662	551.85345	82.76929	0.00000	0.00000	0.00000	885.96155	550.90503	88.22897	915.98376	438.87744	110.06396	913.55164	440.43512	200.33855	873.35724	278.86884	139.38087	881.46814	231.05444	135.77567	935.77570	282.93164	127.28737	934.83276	234.98801	129.81921	932.96497	102.82562	124.30220	919.15253	107.95233	207.36659	988.77698	84.86061	173.42390	787.02155	58.11159	200.57199	771.60797	69.28324	160.28107	799.79742	53.51063	113.06760
273	2.26667	999.08124	1002.83887	293.89426	815.19342	949.65588	376.47723	813.31000	585.19336	404.22134	795.07477	547.61523	399.66495	751.38861	604.09424	398.02008	744.48206	561.63312	395.10196	757.49695	483.32559	387.63168	751.42572	481.53525	274.72464	853.67975	439.52725	397.06113	878.11987	400.19296	401.52399	804.97577	401.31625	389.20383	832.93854	369.87488	392.08948	1040.71008	207.97833	355.00275	1016.11212	202.03743	272.25360	1095.07397	241.34879	299.04617	990.51373	93.89987	377.09018	942.52081	82.66758	326.03180	965.47662	91.68563	284.50684	988.46570	1015.39282	163.85738	811.50775	971.93909	117.68017	939.57782	595.44733	82.10274	933.67810	552.74408	82.99319	877.05902	596.54962	89.90916	879.25531	551.18890	88.46422	910.80859	439.40002	110.44905	908.21252	440.96652	200.53142	870.14294	278.98349	139.42955	878.89508	231.23701	135.89925	932.57043	283.81940	127.42491	932.21362	235.80144	129.91696	932.61609	103.18132	124.44029	918.76440	108.12721	207.47789	988.92590	85.46758	173.32141	786.81525	57.80944	200.67212	771.19049	68.51944	160.27998	799.60797	53.39634	113.13927
274	2.27500	988.73206	1003.80054	293.39423	805.30829	950.59967	376.91162	797.53015	588.39050	405.68759	778.20343	551.02466	401.10443	735.52271	608.49402	399.28571	727.84564	566.14154	396.89209	738.44812	487.70035	389.15054	731.70496	486.21472	276.50253	832.93488	440.08936	397.98871	855.62103	399.76831	402.53271	781.58057	403.10721	389.70050	809.25775	371.68735	393.61444	1009.12158	199.70261	355.43436	983.47168	195.05878	273.12280	1064.69409	229.66539	298.85114	952.46655	88.88966	378.69400	903.00348	80.88448	327.98679	926.69098	87.78117	286.05777	977.43744	1016.10217	163.46988	800.29126	971.90350	118.26122	932.28320	596.37097	82.32617	926.89893	553.55634	83.16376	869.58063	596.48901	90.32614	872.80707	551.72357	88.61699	905.56335	440.02353	110.40419	903.04083	441.40381	200.71588	869.63055	280.17578	137.67870	876.38177	231.36372	135.98589	929.38818	284.60629	127.51965	929.79187	236.72496	129.96744	932.23645	103.45873	124.55051	918.13232	107.99371	207.58752	988.54352	85.86693	173.47343	786.69550	57.25080	201.01660	770.66333	67.80986	160.41457	799.39319	53.23207	113.23729
275	2.28333	978.32861	1004.43250	293.10263	795.21716	951.24158	377.34152	782.20465	591.17242	407.14536	761.99042	554.47797	402.56107	720.53143	612.55499	400.89218	711.61194	570.07214	398.57501	719.76001	491.74445	390.61774	712.81854	490.66055	278.32034	812.58832	439.92609	399.21536	833.22479	398.53284	403.81070	759.93488	406.24423	392.01907	785.16296	371.93555	394.85535	976.38855	191.08748	356.13965	949.84479	187.43649	273.66159	1033.46826	217.58058	299.12558	913.80353	83.75674	380.07178	863.46234	78.79468	329.52478	0.00000	0.00000	0.00000	966.40472	1016.55444	163.25185	789.47125	972.28076	118.57312	924.85620	597.08081	82.51331	920.12726	554.31433	83.32372	862.16290	596.44226	90.57710	865.74683	551.35596	88.93630	900.27563	440.42776	110.57164	897.93622	441.97562	200.88463	863.91016	279.05014	139.71552	873.68591	231.07765	136.18094	926.17078	285.35956	127.60705	927.05518	237.38533	130.05986	931.84613	103.76921	124.65662	917.64008	107.96170	207.73119	988.37793	86.21655	173.54265	786.48358	56.97530	201.07169	770.73474	68.22889	160.58517	799.17737	53.06271	113.33733
276	2.29167	967.87500	1004.85706	292.94342	785.23236	951.57007	377.70123	767.31213	593.64795	408.85901	745.86298	556.85748	404.41855	705.68280	616.52051	402.38736	696.22870	573.97400	400.45782	701.20746	495.28952	391.88303	695.86102	494.01428	280.80554	792.99481	439.55997	400.55502	811.06201	396.78070	405.25259	738.74762	408.17166	394.02698	761.69666	372.72485	396.51172	943.40161	182.06052	357.04907	916.54651	180.23540	274.96887	1001.31012	205.11232	299.83685	874.52466	78.71268	381.38965	824.91632	76.51966	330.91953	0.00000	0.00000	0.00000	955.41479	1016.87653	163.15062	778.53973	972.15845	118.99173	917.44989	597.80908	82.66679	913.27808	554.97473	83.50695	855.56854	596.95502	89.70803	859.11731	551.67859	89.01900	895.15210	440.77765	110.34399	891.81158	441.32367	201.81099	860.80786	278.95566	139.82442	871.28717	231.56708	136.23401	922.93860	286.09760	127.68909	924.44391	238.10419	130.11768	931.46149	104.06673	124.67783	917.86316	108.81557	207.41635	988.16614	86.55303	173.57745	786.25934	56.73672	201.11287	770.28735	67.46145	160.61130	798.86774	52.76995	113.35319
277	2.30000	956.82526	1004.75702	293.05521	774.95782	951.63586	377.98840	752.93536	596.05109	410.57541	730.42798	559.25018	406.08987	691.90869	619.35156	405.02786	680.97296	577.21130	402.19519	684.10687	498.98071	393.58844	678.64349	497.52893	282.76196	773.32190	437.98605	402.65814	789.34802	394.66669	407.11948	717.48706	409.54544	395.41211	738.57983	373.20193	398.07434	909.08014	173.00897	358.26508	880.25916	171.43729	277.03986	969.04846	192.78065	300.75360	834.75262	74.07092	382.92062	784.69604	74.88754	330.97189	807.40228	77.41983	290.61981	944.49261	1017.07672	163.13947	767.15076	972.00018	119.42573	910.01746	598.44086	82.79525	906.36737	555.50897	83.61731	847.46716	596.21503	90.85960	852.02820	551.13800	89.30948	889.72113	441.03455	111.03284	886.42908	441.49036	201.69745	857.53992	278.80209	140.00430	868.44061	231.13951	136.40912	919.68219	286.80453	127.73183	921.80048	238.85689	130.14984	931.05035	104.31915	124.69555	917.23212	108.75130	207.37273	987.60089	86.69078	173.64977	786.03644	56.46568	201.14301	770.18341	67.53284	160.76286	798.67108	52.59583	113.42716
278	2.30833	946.57794	1004.84625	293.07584	764.94330	951.88330	378.23944	738.42511	597.61621	412.45596	715.47308	561.36426	407.94556	678.39734	621.49866	407.14023	666.39154	580.06250	403.97598	667.39551	502.00458	395.08270	662.23187	500.54065	284.57645	754.09308	436.20117	404.42331	767.40161	391.95694	408.54492	696.85492	411.51230	397.41034	715.75079	373.55164	399.73474	874.74280	163.86818	359.80536	846.29254	164.83855	278.43506	935.41528	180.00511	302.11801	794.03998	69.95381	384.68863	744.01483	74.39700	333.11099	0.00000	0.00000	0.00000	933.51501	1017.00879	163.28261	755.85236	971.40100	120.04811	902.54663	598.95490	82.92593	899.52167	555.98303	83.73717	840.12354	595.87659	91.07011	845.41882	551.31012	89.36105	884.38971	441.41632	110.93643	881.05591	441.61810	201.65865	854.34808	278.68808	140.05164	866.20605	231.64905	136.32533	916.40710	287.43469	127.75629	919.20892	239.55873	130.17033	930.78406	104.72961	124.77210	917.24609	109.28078	207.25481	987.33356	86.97373	173.63516	786.04834	56.08994	201.23497	769.95807	67.20509	160.85670	798.46167	52.42860	113.50890
279	2.31667	936.75977	1004.92566	293.27554	754.38110	950.75946	378.60797	723.58392	598.24780	415.07944	701.11469	563.45001	409.81332	664.32306	623.92822	409.17892	652.59204	583.97772	404.59393	651.35718	504.58966	396.48868	646.74640	502.87854	286.30887	735.24677	434.22610	406.18848	745.96558	389.29962	410.26395	676.78082	412.94226	399.04129	693.30310	373.86401	401.32053	839.51019	155.01964	361.45993	811.06305	157.97276	280.27536	901.39319	167.59900	303.76459	752.65399	66.62054	386.61536	703.30255	72.85246	335.98669	0.00000	0.00000	0.00000	922.63586	1016.86688	163.49820	745.21417	971.11096	120.29062	895.11951	599.38184	83.08048	892.66339	556.39050	83.85674	832.79712	595.51373	91.19911	838.64154	551.02661	89.50679	879.05188	441.48703	111.20914	875.55579	441.53729	201.58772	851.34253	278.54568	140.06198	864.00690	231.77654	136.35913	913.21033	288.13373	127.76505	916.53040	240.16496	130.18958	930.42700	104.96189	124.73231	916.85394	109.47916	207.30182	987.10754	87.25500	173.57605	785.80579	56.16698	200.99890	769.63739	66.52681	161.05214	798.29218	52.23662	113.57987
280	2.32500	925.34479	1004.46613	293.40652	744.02069	949.86505	378.86975	710.04846	599.58368	416.80371	687.11493	564.98541	411.52402	651.08698	626.22345	410.62729	638.48022	585.63928	406.09335	635.97607	506.78577	397.75549	632.14801	504.78229	287.88022	716.77466	432.06601	407.78641	724.80798	386.59167	411.90906	657.19659	414.15216	400.52393	671.89734	374.82510	403.13559	803.67963	146.53360	363.32782	775.55475	151.06276	282.25238	866.15082	155.05621	305.52298	711.63428	64.11362	388.95227	662.45648	73.63454	338.36411	682.62268	72.04207	297.25140	911.87640	1016.61755	163.78841	734.02356	970.03326	120.80066	887.69781	599.75647	83.16409	885.87701	556.66193	83.86084	825.40448	595.00806	91.36977	831.85291	550.61523	89.68128	873.78540	441.69760	111.14902	871.61572	443.21643	201.00113	848.10645	278.38159	140.19728	861.49957	231.75497	136.41127	909.91516	288.67706	127.82795	913.94550	240.79462	130.15347	930.08984	105.22069	124.67132	916.57928	109.64124	207.24248	986.97266	87.57420	173.46692	785.65363	55.93180	201.02400	769.55096	66.50718	161.05328	798.11407	52.06261	113.62860
281	2.33333	914.54681	1003.92975	293.85248	733.37531	948.73340	379.21008	696.50623	600.25262	418.53140	673.29840	566.10083	413.03766	637.72046	627.27521	412.02048	625.05310	587.20148	407.42496	621.18848	508.55579	398.94287	616.89899	507.01846	288.50952	698.68756	429.58832	409.15872	704.13745	383.99921	413.64847	638.09595	415.36023	402.07587	650.41571	375.14273	404.67834	767.45123	138.59857	365.42902	739.43933	145.13116	284.55582	828.89038	142.06429	307.70242	670.09601	62.76198	391.74518	621.43988	75.28175	342.61984	0.00000	0.00000	0.00000	901.04785	1016.28204	164.20667	723.38171	969.42126	121.09190	880.28412	600.02197	83.34887	878.99591	556.92889	83.97883	818.15363	594.47791	91.58649	824.79694	549.77887	90.02124	868.47980	441.77209	111.26641	866.35822	443.24670	201.13638	845.02277	278.08224	140.27997	857.98901	231.59633	135.34285	906.66217	289.22470	127.82283	911.33569	241.41260	130.17686	929.73346	105.44151	124.57270	916.24695	109.79882	207.18700	986.76215	87.90527	173.36757	785.48505	55.69770	201.03815	769.71997	66.02096	160.45862	797.93359	51.91674	113.68664
